<svg xmlns="http://www.w3.org/2000/svg" viewBox="0 0 24 24">
  <path fill="#F05032" d="M23.546 10.93L13.067.452a1.55 1.55 0 00-2.188 0L8.708 2.627l2.76 2.76a1.838 1.838 0 012.327 2.341l2.658 2.66a1.838 1.838 0 011.964 2.986 1.84 1.84 0 01-2.986-1.964L13.19 9.17v6.382a1.839 1.839 0 01.482 3.583 1.838 1.838 0 01-2.24-1.79 1.837 1.837 0 01.927-1.583V9.1a1.839 1.839 0 01-.997-2.416L8.652 3.984 2.45 10.187a1.55 1.55 0 000 2.187l10.478 10.478a1.55 1.55 0 002.188 0l10.43-10.43a1.55 1.55 0 000-2.192"/>
</svg>
