<svg xmlns="http://www.w3.org/2000/svg" viewBox="0 0 24 24">
  <path fill="#FCC624" d="M12 1C8.5 1 6 4 6 7.5c0 2 .8 3.8 2 5.1V16c0 .6.4 1 1 1h.5c.2.6.7 1 1.3 1h2.4c.6 0 1.1-.4 1.3-1H15c.6 0 1-.4 1-1v-3.4c1.2-1.3 2-3.1 2-5.1C18 4 15.5 1 12 1zm-2.5 15.5c-.3 0-.5-.2-.5-.5s.2-.5.5-.5.5.2.5.5-.2.5-.5.5zm5 0c-.3 0-.5-.2-.5-.5s.2-.5.5-.5.5.2.5.5-.2.5-.5.5z"/>
  <circle cx="10" cy="8" r="1.2" fill="#1a1a1a"/>
  <circle cx="14" cy="8" r="1.2" fill="#1a1a1a"/>
  <ellipse cx="12" cy="11" rx="2" ry="1" fill="#1a1a1a"/>
  <path fill="#1a1a1a" d="M7 18.5c-.5 1-1 1.5-1.5 1.5S4 19.5 4 19c0-.8.7-1.5 1.5-1.5H7c.3.3.3.7 0 1zm10 0c.5 1 1 1.5 1.5 1.5S20 19.5 20 19c0-.8-.7-1.5-1.5-1.5H17c-.3.3-.3.7 0 1z"/>
</svg>
